<?xml version="1.0" encoding="UTF-8" standalone="no"?>
<svg
   xmlns:dc="http://purl.org/dc/elements/1.1/"
   xmlns:cc="http://creativecommons.org/ns#"
   xmlns:rdf="http://www.w3.org/1999/02/22-rdf-syntax-ns#"
   xmlns:svg="http://www.w3.org/2000/svg"
   xmlns="http://www.w3.org/2000/svg"
   xmlns:sodipodi="http://sodipodi.sourceforge.net/DTD/sodipodi-0.dtd"
   xmlns:inkscape="http://www.inkscape.org/namespaces/inkscape"
   version="1.1"
   width="512"
   height="512"
   x="0"
   y="0"
   viewBox="0 0 480.56 480.56"
   style="enable-background:new 0 0 512 512"
   xml:space="preserve"
   class=""
   id="svg44"
   sodipodi:docname="telephone.svg"
   inkscape:version="0.92.5 (2060ec1f9f, 2020-04-08)"><metadata
     id="metadata50"><rdf:RDF><cc:Work
         rdf:about=""><dc:format>image/svg+xml</dc:format><dc:type
           rdf:resource="http://purl.org/dc/dcmitype/StillImage" /></cc:Work></rdf:RDF></metadata><defs
     id="defs48">
		
		
		
	</defs><sodipodi:namedview
     pagecolor="#ffffff"
     bordercolor="#666666"
     borderopacity="1"
     objecttolerance="10"
     gridtolerance="10"
     guidetolerance="10"
     inkscape:pageopacity="0"
     inkscape:pageshadow="2"
     inkscape:window-width="1528"
     inkscape:window-height="836"
     id="namedview46"
     showgrid="false"
     inkscape:zoom="0.4609375"
     inkscape:cx="256"
     inkscape:cy="256"
     inkscape:window-x="72"
     inkscape:window-y="27"
     inkscape:window-maximized="1"
     inkscape:current-layer="g10" /><g
     id="g42">
<g
   id="g10">
	<path
   inkscape:connector-curvature="0"
   id="path2"
   class=""
   style="fill:#68ff00"
   data-original="#000000"
   d="m 376.77622,308.67313 c -15.7,-15.5 -35.3,-15.5 -50.9,0 -11.9,11.8 -23.8,23.6 -35.5,35.6 -3.2,3.3 -5.9,4 -9.8,1.8 -7.7,-4.2 -15.9,-7.6 -23.3,-12.2 -34.5,-21.7 -63.4,-49.6 -89,-81 -12.7,-15.6 -24,-32.3 -31.9,-51.1 -1.6,-3.8 -1.3,-6.3 1.8,-9.4 11.9,-11.5 23.5,-23.3 35.2,-35.1 16.3,-16.4 16.3,-35.6 -0.1,-52.1 -9.3,-9.399991 -18.6,-18.599981 -27.9,-27.999981 -9.6,-9.6 -19.1,-19.3 -28.8,-28.8 -15.70001,-15.3 -35.300009,-15.3 -50.900009,0.1 -12,11.8 -23.5,23.9 -35.7,35.5 -11.3,10.69999 -17.000002,23.799981 -18.200002,39.099981 -1.9000003,24.9 4.200001,48.4 12.800001,71.3 17.600001,47.4 44.4,89.5 76.9,128.1 43.90001,52.2 96.30001,93.5 157.60001,123.3 27.6,13.4 56.2,23.7 87.3,25.4 21.4,1.2 40,-4.2 54.9,-20.9 10.2,-11.4 21.7,-21.8 32.5,-32.7 16,-16.2 16.1,-35.8 0.2,-51.8 -19,-19.1 -38.1,-38.1 -57.2,-57.1 z" />
</g>
<g
   id="g12">
</g>
<g
   id="g14">
</g>
<g
   id="g16">
</g>
<g
   id="g18">
</g>
<g
   id="g20">
</g>
<g
   id="g22">
</g>
<g
   id="g24">
</g>
<g
   id="g26">
</g>
<g
   id="g28">
</g>
<g
   id="g30">
</g>
<g
   id="g32">
</g>
<g
   id="g34">
</g>
<g
   id="g36">
</g>
<g
   id="g38">
</g>
<g
   id="g40">
</g>
</g></svg>