<?xml version="1.0" encoding="UTF-8" standalone="no"?>
<svg
   xmlns:dc="http://purl.org/dc/elements/1.1/"
   xmlns:cc="http://creativecommons.org/ns#"
   xmlns:rdf="http://www.w3.org/1999/02/22-rdf-syntax-ns#"
   xmlns:svg="http://www.w3.org/2000/svg"
   xmlns="http://www.w3.org/2000/svg"
   xmlns:sodipodi="http://sodipodi.sourceforge.net/DTD/sodipodi-0.dtd"
   xmlns:inkscape="http://www.inkscape.org/namespaces/inkscape"
   version="1.1"
   width="512"
   height="512"
   x="0"
   y="0"
   viewBox="0 0 480.56 480.56"
   style="enable-background:new 0 0 512 512"
   xml:space="preserve"
   class=""
   id="svg44"
   sodipodi:docname="telephone3.svg"
   inkscape:version="0.92.5 (2060ec1f9f, 2020-04-08)"><metadata
     id="metadata50"><rdf:RDF><cc:Work
         rdf:about=""><dc:format>image/svg+xml</dc:format><dc:type
           rdf:resource="http://purl.org/dc/dcmitype/StillImage" /><dc:title></dc:title></cc:Work></rdf:RDF></metadata><defs
     id="defs48">
		
		
		
	</defs><sodipodi:namedview
     pagecolor="#ffffff"
     bordercolor="#666666"
     borderopacity="1"
     objecttolerance="10"
     gridtolerance="10"
     guidetolerance="10"
     inkscape:pageopacity="0"
     inkscape:pageshadow="2"
     inkscape:window-width="1528"
     inkscape:window-height="836"
     id="namedview46"
     showgrid="false"
     inkscape:zoom="0.4609375"
     inkscape:cx="253.83051"
     inkscape:cy="256"
     inkscape:window-x="72"
     inkscape:window-y="27"
     inkscape:window-maximized="1"
     inkscape:current-layer="g10" /><g
     id="g42">
<g
   id="g10">
	<path
   inkscape:connector-curvature="0"
   id="path2"
   class=""
   style="fill:#68ff00"
   data-original="#000000"
   d="m 376.77622,308.67313 c -15.7,-15.5 -35.3,-15.5 -50.9,0 -11.9,11.8 -23.8,23.6 -35.5,35.6 -3.2,3.3 -5.9,4 -9.8,1.8 -7.7,-4.2 -15.9,-7.6 -23.3,-12.2 -34.5,-21.7 -63.4,-49.6 -89,-81 -12.7,-15.6 -24,-32.3 -31.9,-51.1 -1.6,-3.8 -1.3,-6.3 1.8,-9.4 11.9,-11.5 23.5,-23.3 35.2,-35.1 16.3,-16.4 16.3,-35.6 -0.1,-52.1 -9.3,-9.399991 -18.6,-18.599981 -27.9,-27.999981 -9.6,-9.6 -19.1,-19.3 -28.8,-28.8 -15.70001,-15.3 -35.300009,-15.3 -50.900009,0.1 -12,11.8 -23.5,23.9 -35.7,35.5 -11.3,10.69999 -17.000002,23.799981 -18.200002,39.099981 -1.9000003,24.9 4.200001,48.4 12.800001,71.3 17.600001,47.4 44.4,89.5 76.9,128.1 43.90001,52.2 96.30001,93.5 157.60001,123.3 27.6,13.4 56.2,23.7 87.3,25.4 21.4,1.2 40,-4.2 54.9,-20.9 10.2,-11.4 21.7,-21.8 32.5,-32.7 16,-16.2 16.1,-35.8 0.2,-51.8 -19,-19.1 -38.1,-38.1 -57.2,-57.1 z" />
<path
   style="stroke-width:2.16949153"
   d="M 332.58305,495.01648 C 264.22888,477.32033 178.9868,421.71809 121.88139,357.5787 74.879223,304.787 44.073893,254.44395 24.580682,198.56673 11.491448,161.04648 9.768649,131.92872 19.323762,109.71727 25.902276,94.425095 77.999536,43.47041 89.20548,41.368162 c 18.21766,-3.417653 21.26448,-1.459123 63.68425,40.936983 32.50531,32.487175 39.89586,41.021705 42.10611,48.623665 4.67312,16.07274 0.7629,23.57497 -27.46458,52.69417 -13.6283,14.05882 -24.77872,26.16486 -24.77872,26.90231 0,2.9144 14.06315,29.00242 21.70705,40.26793 17.97263,26.48789 53.45615,63.78179 82.0329,86.21822 20.52135,16.11192 49.117,33.10381 55.71037,33.10381 2.72006,0 11.97414,-7.65138 23.91695,-19.77482 30.1727,-30.62908 42.91039,-36.87802 61.10167,-29.97565 3.35904,1.27453 22.94565,19.05262 43.52579,39.50687 42.65943,42.39848 46.54162,48.51589 41.71926,65.73967 -2.31554,8.27032 -7.34289,14.58183 -29.4118,36.92466 -33.5235,33.93957 -40.6364,37.74408 -70.33609,37.6209 -14.31484,-0.0595 -26.57416,-1.62949 -40.13559,-5.1404 z"
   id="path4582"
   inkscape:connector-curvature="0"
   transform="scale(0.93859375)" /><path
   style="stroke-width:2.16949153;fill:#44aa00;fill-opacity:0.82499999"
   d="M 354.87349,497.82626 C 319.88588,494.34882 266.90337,471.57966 218.68475,439.29934 142.29166,388.15744 79.378688,316.30822 42.187637,237.73235 25.300314,202.05345 16.663151,173.78927 15.311307,149.7825 13.708755,121.3235 17.292768,110.85887 35.835383,89.856132 56.526143,66.420248 81.465214,45.026724 91.147791,42.407399 104.16,38.887342 112.01602,43.903735 146.50942,77.75811 c 41.57628,40.80603 48.31328,49.3082 48.30281,60.95874 -0.0109,11.98318 -4.88176,19.48331 -30.65021,47.19386 -11.77521,12.66268 -21.40948,24.41084 -21.40948,26.10701 0,4.96762 18.58121,36.15436 32.0497,53.79231 14.4649,18.94278 52.94577,57.98617 70.02149,71.04508 20.55609,15.72054 50.20035,33.2632 56.09036,33.19272 4.086,-0.0488 12.11455,-6.07649 29.20576,-21.9269 26.2691,-24.36198 38.12322,-31.10971 50.55506,-28.77748 6.52155,1.22346 14.43868,7.83247 43.65034,36.43826 19.62613,19.21904 38.49776,39.0247 41.93694,44.01258 7.60674,11.03208 8.17907,22.41265 1.67147,33.23622 -7.57988,12.607 -51.90552,55.11623 -62.67264,60.10442 -11.73923,5.43854 -27.81271,6.93506 -50.38753,4.69133 z"
   id="path4584"
   inkscape:connector-curvature="0"
   transform="scale(0.93859375)" /></g>
<g
   id="g12">
</g>
<g
   id="g14">
</g>
<g
   id="g16">
</g>
<g
   id="g18">
</g>
<g
   id="g20">
</g>
<g
   id="g22">
</g>
<g
   id="g24">
</g>
<g
   id="g26">
</g>
<g
   id="g28">
</g>
<g
   id="g30">
</g>
<g
   id="g32">
</g>
<g
   id="g34">
</g>
<g
   id="g36">
</g>
<g
   id="g38">
</g>
<g
   id="g40">
</g>
</g></svg>